<svg id="Capa_1" data-name="Capa 1" xmlns="http://www.w3.org/2000/svg" viewBox="0 0 478.09 141.79"><defs><style>.cls-1{fill:#1d1d1b;}.cls-2{fill:#fff;}.cls-3{fill:#f0e4f2;}.cls-4{fill:#8b8bc3;}.cls-5{fill:none;stroke:#1d1d1b;stroke-miterlimit:10;}</style></defs><polygon class="cls-1" points="76.67 44.5 76.67 38.48 79.44 38.48 79.44 32.4 82.23 32.4 82.23 29.39 85.03 29.39 85.03 26.36 87.84 26.36 87.84 29.38 90.62 29.38 90.62 32.41 104.59 32.41 104.59 29.4 107.35 29.4 107.35 26.36 110.16 26.36 110.16 29.38 112.94 29.38 112.94 32.4 115.72 32.4 115.72 38.45 118.53 38.45 118.53 44.5 121.31 44.5 121.31 50.56 124.1 50.56 124.1 53.54 121.32 53.54 121.32 56.62 124.1 56.62 124.1 59.59 121.34 59.59 121.34 62.61 118.55 62.61 118.55 65.65 115.75 65.65 115.75 68.7 110.15 68.7 110.15 71.71 85.05 71.71 85.05 68.69 79.44 68.69 79.44 65.68 76.67 65.68 76.67 62.61 73.85 62.61 73.85 59.61 71.03 59.61 71.03 56.58 73.85 56.58 73.85 53.58 71.03 53.58 71.03 50.55 73.83 50.55 73.83 44.48 76.67 44.5"/><polygon class="cls-1" points="93.39 51.62 101.79 51.62 101.79 54.92 98.95 54.92 98.97 61.65 96.18 61.65 96.18 54.93 93.39 54.93 93.39 51.62"/><path class="cls-2" d="M150,402.32h-3.8V395.6h-2.79v-4.31h9.4v4.3h-2.84Zm-2.8-1h1.79l0-6.73h2.84v-2.3h-7.4v2.31h2.79Z" transform="translate(-50.47 -340.17)"/><rect class="cls-1" x="87.82" y="58.31" width="2.76" height="3.35"/><path class="cls-2" d="M141.55,402.32h-3.76V398h3.76Zm-2.76-1h1.76V399h-1.76Z" transform="translate(-50.47 -340.17)"/><rect class="cls-1" x="104.6" y="58.31" width="2.73" height="3.35"/><path class="cls-2" d="M158.3,402.32h-3.73V398h3.73Zm-2.73-1h1.73V399h-1.73Z" transform="translate(-50.47 -340.17)"/><rect class="cls-1" x="90.63" y="61.7" width="5.51" height="3.3"/><path class="cls-2" d="M147.11,405.66H140.6v-4.29h6.51Zm-5.51-1h4.51v-2.29H141.6Z" transform="translate(-50.47 -340.17)"/><rect class="cls-1" x="99.02" y="61.69" width="5.54" height="3.31"/><path class="cls-2" d="M155.53,405.66H149v-4.3h6.54Zm-5.54-1h4.54v-2.3H150Z" transform="translate(-50.47 -340.17)"/><rect class="cls-1" x="104.6" y="41.6" width="5.57" height="10.02"/><path class="cls-2" d="M161.13,392.29h-6.56v-11h6.56Zm-5.56-1h4.56v-9h-4.56Z" transform="translate(-50.47 -340.17)"/><rect class="cls-1" x="85.03" y="41.6" width="5.57" height="10.02"/><path class="cls-2" d="M141.57,392.29H135v-11h6.57Zm-5.57-1h4.57v-9H136Z" transform="translate(-50.47 -340.17)"/><polygon class="cls-3" points="74.67 42.5 74.67 36.48 77.44 36.48 77.44 30.4 80.23 30.4 80.23 27.39 83.03 27.39 83.03 24.36 85.84 24.36 85.84 27.38 88.62 27.38 88.62 30.41 102.59 30.41 102.59 27.4 105.35 27.4 105.35 24.36 108.16 24.36 108.16 27.38 110.94 27.38 110.94 30.4 113.72 30.4 113.72 36.45 116.53 36.45 116.53 42.5 119.31 42.5 119.31 48.56 122.1 48.56 122.1 51.54 119.32 51.54 119.32 54.62 122.1 54.62 122.1 57.59 119.34 57.59 119.34 60.61 116.55 60.61 116.55 63.65 113.75 63.65 113.75 66.7 108.15 66.7 108.15 69.71 83.05 69.71 83.05 66.69 77.44 66.69 77.44 63.68 74.67 63.68 74.67 60.61 71.85 60.61 71.85 57.61 69.03 57.61 69.03 54.58 71.85 54.58 71.85 51.58 69.03 51.58 69.03 48.55 71.83 48.55 71.83 42.48 74.67 42.5"/><path d="M159,410.25H133.15v-3h-5.61v-3h-2.77v-3.07H122v-3h-2.82v-3.77H122v-2.25h-2.82v-3.78h2.79v-6.08l2.85,0v-6h2.77V370.2h2.79v-3h2.8v-3h3.55v3h2.78v3h13.23v-3h2.76v-3.05H159v3h2.78v3h2.77v6.05h2.81v6.05h2.78v6.06h2.79v3.72h-2.78v2.34h2.78v3.71h-2.76v3h-2.79v3h-2.8v3.05H159Zm-25.1-.75h24.35v-3h5.59v-3.05h2.8v-3h2.79v-3h2.76v-2.21h-2.78v-3.84h2.78v-2.22H169.4v-6.06h-2.78V377h-2.81V371H161v-3h-2.78v-3H156.2V368h-2.76v3H138.71v-3h-2.78v-3h-2.05v3h-2.8v3h-2.79V377h-2.77v6l-2.85,0v6.07h-2.79v2.28h2.82v3.75h-2.82v2.27h2.82v3h2.82v3.07h2.77v3h5.61Z" transform="translate(-50.47 -340.17)"/><polygon class="cls-4" points="91.39 49.62 99.79 49.62 99.79 52.92 96.95 52.92 96.97 59.65 94.18 59.65 94.18 52.93 91.39 52.93 91.39 49.62"/><rect class="cls-4" x="85.82" y="56.31" width="2.76" height="3.35"/><rect class="cls-4" x="102.6" y="56.31" width="2.73" height="3.35"/><rect class="cls-4" x="88.63" y="59.7" width="5.51" height="3.3"/><rect class="cls-4" x="97.02" y="59.69" width="5.54" height="3.31"/><rect class="cls-4" x="102.6" y="39.6" width="5.57" height="10.02"/><rect class="cls-4" x="83.03" y="39.6" width="5.57" height="10.02"/><path d="M120.62,352.19v28.57h-4.76v4.76H111.1v4.76H87.3v14.28H82.54v4.76H58.73v-4.76H54V347.43h4.76V357h4.76v-4.76h4.76v-4.76H58.73v-4.76H111.1v4.76h4.76v4.76ZM87.3,376h9.52V357H87.3Z" transform="translate(-50.47 -340.17)"/><path d="M219.14,370.16h3.56v3.56h-3.56v3.56h-17.8v17.8h17.8v3.56h3.56v7.12h-3.56v3.56h-32v-3.56h-3.56V402.2H180V373.72h3.56v3.56h3.56v-3.56h3.56v-3.56h-3.56V366.6h32Z" transform="translate(-50.47 -340.17)"/><path d="M272.55,370.16v35.6H269v3.56h-7.12v-3.56H258.3V391.52h-7.12v14.24h-3.56v3.56H233.38v-3.56h-3.56v-35.6h3.56v7.12h3.56v-3.56h3.56v-3.56h-7.12V366.6h14.24v3.56h3.56v10.68h7.12V370.16h3.57V366.6H269v3.56Z" transform="translate(-50.47 -340.17)"/><path d="M297.47,370.16H301v35.6h-3.56v3.56H283.23v-3.56h-3.56v-35.6h3.56v7.12h3.56v-3.56h3.56v-3.56h-7.12V366.6h14.24Z" transform="translate(-50.47 -340.17)"/><path d="M312.82,358.16h-4.65v-9.31h4.65Zm55.82-9.31h4.65v9.31h-4.65v4.65h-14v41.86H350v4.65h-18.6v-4.65h-4.65V362.81h-14v-4.65h4.65v-4.65h4.65v-4.66h-9.3V344.2h55.82Z" transform="translate(-50.47 -340.17)"/><path d="M421.74,373.72h3.56v32h-3.56v3.56h-3.56v-3.56h-3.56V391.52H403.94v14.24h-3.56v3.56H386.14v-3.56h-3.56v-32h3.56v3.56h3.56v-3.56h3.56v-3.56H389.7V366.6h28.48v3.56h3.56Zm-7.12,3.56H403.94v3.56h10.68Z" transform="translate(-50.47 -340.17)"/><path d="M475.15,370.16h3.56v35.6h-3.56v3.56H468v-3.56h-3.56V391.52h-3.56v3.56h-3.56v-3.56h-3.56v14.24h-3.56v3.56H436v-3.56h-3.56v-35.6H436v7.12h3.56v-3.56h3.56v-3.56H436V366.6h14.25v3.56h3.56v7.12h3.56v3.56h3.56v-3.56h3.56v-7.12H468V366.6h7.12Z" transform="translate(-50.47 -340.17)"/><path d="M525,373.72h3.56v32H525v3.56h-3.56v-3.56h-3.56V391.52H507.19v14.24h-3.56v3.56H489.39v-3.56h-3.56v-32h3.56v3.56H493v-3.56h3.56v-3.56H493V366.6h28.49v3.56H525Zm-7.12,3.56H507.19v3.56h10.69Z" transform="translate(-50.47 -340.17)"/><path d="M237.85,442.79h3.56v32h-3.56v3.56h-3.56V482H195.12V478.4h-3.56V435.67h3.56v7.12h3.56v-3.56h3.56v-3.56h-7.12v-3.56h35.61v3.56h3.56v3.56h3.56Zm-14.25,3.56v-3.56h-7.12v24.93h7.12v-3.56h3.57V446.35Z" transform="translate(-50.47 -340.17)"/><path d="M287.69,442.79h3.56v3.56h-3.56v3.56h-17.8v3.57h17.8V457h3.56v3.56h-3.56v3.56h-17.8v3.56h17.8v3.56h3.56v7.12h-3.56V482h-35.6V478.4h-3.56V442.79h3.56v7.12h3.56v-3.56h3.56v-3.56h-7.12v-3.56h35.6Z" transform="translate(-50.47 -340.17)"/><path d="M337.54,442.79h3.56v21.37h-3.56v3.56H334v3.56h-3.56v3.56h-3.56v3.56H323.3V482H305.5V478.4h-3.56v-3.56h-3.56v-32h3.56v7.12h3.56v-3.56h3.56v-3.56h-7.12v-3.56h14.24v3.56h3.56v21.37h3.56V460.6h3.56V442.79h3.56v-3.56h7.12Z" transform="translate(-50.47 -340.17)"/><path d="M387.39,442.79H391v3.56h-3.56v3.56h-17.8v3.57h17.8V457H391v17.8h-3.56v3.56h-3.56V482H351.78V478.4h-3.56V467.72h3.56v-3.56h24.93V460.6H351.78V457h-3.56V446.35h3.56v3.56h3.56v-3.56h3.57v-3.56h-3.57v-3.56h32.05Z" transform="translate(-50.47 -340.17)"/><path class="cls-1" d="M120.62,352.19v28.57h-4.76v4.76H111.1v4.76H87.3v14.28H82.54v4.76H58.73v-4.76H54V347.43h4.76V357h4.76v-4.76h4.76v-4.76H58.73v-4.76H111.1v4.76h4.76v4.76ZM87.3,376h9.52V357H87.3Z" transform="translate(-50.47 -340.17)"/><path class="cls-1" d="M219.14,370.16h3.56v3.56h-3.56v3.56h-17.8v17.8h17.8v3.56h3.56v7.12h-3.56v3.56h-32v-3.56h-3.56V402.2H180V373.72h3.56v3.56h3.56v-3.56h3.56v-3.56h-3.56V366.6h32Z" transform="translate(-50.47 -340.17)"/><path class="cls-1" d="M272.55,370.16v35.6H269v3.56h-7.12v-3.56H258.3V391.52h-7.12v14.24h-3.56v3.56H233.38v-3.56h-3.56v-35.6h3.56v7.12h3.56v-3.56h3.56v-3.56h-7.12V366.6h14.24v3.56h3.56v10.68h7.12V370.16h3.57V366.6H269v3.56Z" transform="translate(-50.47 -340.17)"/><path class="cls-1" d="M297.47,370.16H301v35.6h-3.56v3.56H283.23v-3.56h-3.56v-35.6h3.56v7.12h3.56v-3.56h3.56v-3.56h-7.12V366.6h14.24Z" transform="translate(-50.47 -340.17)"/><path class="cls-1" d="M312.82,358.16h-4.65v-9.31h4.65Zm55.82-9.31h4.65v9.31h-4.65v4.65h-14v41.86H350v4.65h-18.6v-4.65h-4.65V362.81h-14v-4.65h4.65v-4.65h4.65v-4.66h-9.3V344.2h55.82Z" transform="translate(-50.47 -340.17)"/><path class="cls-1" d="M421.74,373.72h3.56v32h-3.56v3.56h-3.56v-3.56h-3.56V391.52H403.94v14.24h-3.56v3.56H386.14v-3.56h-3.56v-32h3.56v3.56h3.56v-3.56h3.56v-3.56H389.7V366.6h28.48v3.56h3.56Zm-7.12,3.56H403.94v3.56h10.68Z" transform="translate(-50.47 -340.17)"/><path class="cls-1" d="M475.15,370.16h3.56v35.6h-3.56v3.56H468v-3.56h-3.56V391.52h-3.56v3.56h-3.56v-3.56h-3.56v14.24h-3.56v3.56H436v-3.56h-3.56v-35.6H436v7.12h3.56v-3.56h3.56v-3.56H436V366.6h14.25v3.56h3.56v7.12h3.56v3.56h3.56v-3.56h3.56v-7.12H468V366.6h7.12Z" transform="translate(-50.47 -340.17)"/><path class="cls-1" d="M525,373.72h3.56v32H525v3.56h-3.56v-3.56h-3.56V391.52H507.19v14.24h-3.56v3.56H489.39v-3.56h-3.56v-32h3.56v3.56H493v-3.56h3.56v-3.56H493V366.6h28.49v3.56H525Zm-7.12,3.56H507.19v3.56h10.69Z" transform="translate(-50.47 -340.17)"/><path class="cls-1" d="M237.85,442.79h3.56v32h-3.56v3.56h-3.56V482H195.12V478.4h-3.56V435.67h3.56v7.12h3.56v-3.56h3.56v-3.56h-7.12v-3.56h35.61v3.56h3.56v3.56h3.56Zm-14.25,3.56v-3.56h-7.12v24.93h7.12v-3.56h3.57V446.35Z" transform="translate(-50.47 -340.17)"/><path class="cls-1" d="M287.69,442.79h3.56v3.56h-3.56v3.56h-17.8v3.57h17.8V457h3.56v3.56h-3.56v3.56h-17.8v3.56h17.8v3.56h3.56v7.12h-3.56V482h-35.6V478.4h-3.56V442.79h3.56v7.12h3.56v-3.56h3.56v-3.56h-7.12v-3.56h35.6Z" transform="translate(-50.47 -340.17)"/><path class="cls-1" d="M337.54,442.79h3.56v21.37h-3.56v3.56H334v3.56h-3.56v3.56h-3.56v3.56H323.3V482H305.5V478.4h-3.56v-3.56h-3.56v-32h3.56v7.12h3.56v-3.56h3.56v-3.56h-7.12v-3.56h14.24v3.56h3.56v21.37h3.56V460.6h3.56V442.79h3.56v-3.56h7.12Z" transform="translate(-50.47 -340.17)"/><path class="cls-1" d="M387.39,442.79H391v3.56h-3.56v3.56h-17.8v3.57h17.8V457H391v17.8h-3.56v3.56h-3.56V482H351.78V478.4h-3.56V467.72h3.56v-3.56h24.93V460.6H351.78V457h-3.56V446.35h3.56v3.56h3.56v-3.56h3.57v-3.56h-3.57v-3.56h32.05Z" transform="translate(-50.47 -340.17)"/><path d="M117.62,350.19v28.57h-4.76v4.76H108.1v4.76H84.3v14.28H79.54v4.76H55.73v-4.76H51V345.43h4.76V355h4.76v-4.76h4.76v-4.76H55.73v-4.76H108.1v4.76h4.76v4.76ZM84.3,374h9.52V355H84.3Z" transform="translate(-50.47 -340.17)"/><path d="M216.14,368.16h3.56v3.56h-3.56v3.56h-17.8v17.8h17.8v3.56h3.56v7.12h-3.56v3.56h-32v-3.56h-3.56V400.2H177V371.72h3.56v3.56h3.56v-3.56h3.56v-3.56h-3.56V364.6h32Z" transform="translate(-50.47 -340.17)"/><path d="M269.55,368.16v35.6H266v3.56h-7.12v-3.56H255.3V389.52h-7.12v14.24h-3.56v3.56H230.38v-3.56h-3.56v-35.6h3.56v7.12h3.56v-3.56h3.56v-3.56h-7.12V364.6h14.24v3.56h3.56v10.68h7.12V368.16h3.57V364.6H266v3.56Z" transform="translate(-50.47 -340.17)"/><path d="M294.47,368.16H298v35.6h-3.56v3.56H280.23v-3.56h-3.56v-35.6h3.56v7.12h3.56v-3.56h3.56v-3.56h-7.12V364.6h14.24Z" transform="translate(-50.47 -340.17)"/><path d="M309.82,356.16h-4.65v-9.31h4.65Zm55.82-9.31h4.65v9.31h-4.65v4.65h-14v41.86H347v4.65h-18.6v-4.65h-4.65V360.81h-14v-4.65h4.65v-4.65h4.65v-4.66h-9.3V342.2h55.82Z" transform="translate(-50.47 -340.17)"/><path d="M418.74,371.72h3.56v32h-3.56v3.56h-3.56v-3.56h-3.56V389.52H400.94v14.24h-3.56v3.56H383.14v-3.56h-3.56v-32h3.56v3.56h3.56v-3.56h3.56v-3.56H386.7V364.6h28.48v3.56h3.56Zm-7.12,3.56H400.94v3.56h10.68Z" transform="translate(-50.47 -340.17)"/><path d="M472.15,368.16h3.56v35.6h-3.56v3.56H465v-3.56h-3.56V389.52h-3.56v3.56h-3.56v-3.56h-3.56v14.24h-3.56v3.56H433v-3.56h-3.56v-35.6H433v7.12h3.56v-3.56h3.56v-3.56H433V364.6h14.25v3.56h3.56v7.12h3.56v3.56h3.56v-3.56h3.56v-7.12H465V364.6h7.12Z" transform="translate(-50.47 -340.17)"/><path d="M522,371.72h3.56v32H522v3.56h-3.56v-3.56h-3.56V389.52H504.19v14.24h-3.56v3.56H486.39v-3.56h-3.56v-32h3.56v3.56H490v-3.56h3.56v-3.56H490V364.6h28.49v3.56H522Zm-7.12,3.56H504.19v3.56h10.69Z" transform="translate(-50.47 -340.17)"/><path d="M234.85,440.79h3.56v32h-3.56v3.56h-3.56V480H192.12V476.4h-3.56V433.67h3.56v7.12h3.56v-3.56h3.56v-3.56h-7.12v-3.56h35.61v3.56h3.56v3.56h3.56Zm-14.25,3.56v-3.56h-7.12v24.93h7.12v-3.56h3.57V444.35Z" transform="translate(-50.47 -340.17)"/><path d="M284.69,440.79h3.56v3.56h-3.56v3.56h-17.8v3.57h17.8V455h3.56v3.56h-3.56v3.56h-17.8v3.56h17.8v3.56h3.56v7.12h-3.56V480h-35.6V476.4h-3.56V440.79h3.56v7.12h3.56v-3.56h3.56v-3.56h-7.12v-3.56h35.6Z" transform="translate(-50.47 -340.17)"/><path d="M334.54,440.79h3.56v21.37h-3.56v3.56H331v3.56h-3.56v3.56h-3.56v3.56H320.3V480H302.5V476.4h-3.56v-3.56h-3.56v-32h3.56v7.12h3.56v-3.56h3.56v-3.56h-7.12v-3.56h14.24v3.56h3.56v21.37h3.56V458.6h3.56V440.79h3.56v-3.56h7.12Z" transform="translate(-50.47 -340.17)"/><path d="M384.39,440.79H388v3.56h-3.56v3.56h-17.8v3.57h17.8V455H388v17.8h-3.56v3.56h-3.56V480H348.78V476.4h-3.56V465.72h3.56v-3.56h24.93V458.6H348.78V455h-3.56V444.35h3.56v3.56h3.56v-3.56h3.57v-3.56h-3.57v-3.56h32.05Z" transform="translate(-50.47 -340.17)"/><path class="cls-3" d="M117.62,350.19v28.57h-4.76v4.76H108.1v4.76H84.3v14.28H79.54v4.76H55.73v-4.76H51V345.43h4.76V355h4.76v-4.76h4.76v-4.76H55.73v-4.76H108.1v4.76h4.76v4.76ZM84.3,374h9.52V355H84.3Z" transform="translate(-50.47 -340.17)"/><path class="cls-3" d="M216.14,368.16h3.56v3.56h-3.56v3.56h-17.8v17.8h17.8v3.56h3.56v7.12h-3.56v3.56h-32v-3.56h-3.56V400.2H177V371.72h3.56v3.56h3.56v-3.56h3.56v-3.56h-3.56V364.6h32Z" transform="translate(-50.47 -340.17)"/><path class="cls-3" d="M269.55,368.16v35.6H266v3.56h-7.12v-3.56H255.3V389.52h-7.12v14.24h-3.56v3.56H230.38v-3.56h-3.56v-35.6h3.56v7.12h3.56v-3.56h3.56v-3.56h-7.12V364.6h14.24v3.56h3.56v10.68h7.12V368.16h3.57V364.6H266v3.56Z" transform="translate(-50.47 -340.17)"/><path class="cls-3" d="M294.47,368.16H298v35.6h-3.56v3.56H280.23v-3.56h-3.56v-35.6h3.56v7.12h3.56v-3.56h3.56v-3.56h-7.12V364.6h14.24Z" transform="translate(-50.47 -340.17)"/><path class="cls-3" d="M309.82,356.16h-4.65v-9.31h4.65Zm55.82-9.31h4.65v9.31h-4.65v4.65h-14v41.86H347v4.65h-18.6v-4.65h-4.65V360.81h-14v-4.65h4.65v-4.65h4.65v-4.66h-9.3V342.2h55.82Z" transform="translate(-50.47 -340.17)"/><path class="cls-3" d="M418.74,371.72h3.56v32h-3.56v3.56h-3.56v-3.56h-3.56V389.52H400.94v14.24h-3.56v3.56H383.14v-3.56h-3.56v-32h3.56v3.56h3.56v-3.56h3.56v-3.56H386.7V364.6h28.48v3.56h3.56Zm-7.12,3.56H400.94v3.56h10.68Z" transform="translate(-50.47 -340.17)"/><path class="cls-3" d="M472.15,368.16h3.56v35.6h-3.56v3.56H465v-3.56h-3.56V389.52h-3.56v3.56h-3.56v-3.56h-3.56v14.24h-3.56v3.56H433v-3.56h-3.56v-35.6H433v7.12h3.56v-3.56h3.56v-3.56H433V364.6h14.25v3.56h3.56v7.12h3.56v3.56h3.56v-3.56h3.56v-7.12H465V364.6h7.12Z" transform="translate(-50.47 -340.17)"/><path class="cls-3" d="M522,371.72h3.56v32H522v3.56h-3.56v-3.56h-3.56V389.52H504.19v14.24h-3.56v3.56H486.39v-3.56h-3.56v-32h3.56v3.56H490v-3.56h3.56v-3.56H490V364.6h28.49v3.56H522Zm-7.12,3.56H504.19v3.56h10.69Z" transform="translate(-50.47 -340.17)"/><path class="cls-3" d="M234.85,440.79h3.56v32h-3.56v3.56h-3.56V480H192.12V476.4h-3.56V433.67h3.56v7.12h3.56v-3.56h3.56v-3.56h-7.12v-3.56h35.61v3.56h3.56v3.56h3.56Zm-14.25,3.56v-3.56h-7.12v24.93h7.12v-3.56h3.57V444.35Z" transform="translate(-50.47 -340.17)"/><path class="cls-3" d="M284.69,440.79h3.56v3.56h-3.56v3.56h-17.8v3.57h17.8V455h3.56v3.56h-3.56v3.56h-17.8v3.56h17.8v3.56h3.56v7.12h-3.56V480h-35.6V476.4h-3.56V440.79h3.56v7.12h3.56v-3.56h3.56v-3.56h-7.12v-3.56h35.6Z" transform="translate(-50.47 -340.17)"/><path class="cls-3" d="M334.54,440.79h3.56v21.37h-3.56v3.56H331v3.56h-3.56v3.56h-3.56v3.56H320.3V480H302.5V476.4h-3.56v-3.56h-3.56v-32h3.56v7.12h3.56v-3.56h3.56v-3.56h-7.12v-3.56h14.24v3.56h3.56v21.37h3.56V458.6h3.56V440.79h3.56v-3.56h7.12Z" transform="translate(-50.47 -340.17)"/><path class="cls-3" d="M384.39,440.79H388v3.56h-3.56v3.56h-17.8v3.57h17.8V455H388v17.8h-3.56v3.56h-3.56V480H348.78V476.4h-3.56V465.72h3.56v-3.56h24.93V458.6H348.78V455h-3.56V444.35h3.56v3.56h3.56v-3.56h3.57v-3.56h-3.57v-3.56h32.05Z" transform="translate(-50.47 -340.17)"/><path class="cls-5" d="M117.62,350.19v28.57h-4.76v4.76H108.1v4.76H84.3v14.28H79.54v4.76H55.73v-4.76H51V345.43h4.76V355h4.76v-4.76h4.76v-4.76H55.73v-4.76H108.1v4.76h4.76v4.76ZM84.3,374h9.52V355H84.3Z" transform="translate(-50.47 -340.17)"/><path class="cls-5" d="M216.14,368.16h3.56v3.56h-3.56v3.56h-17.8v17.8h17.8v3.56h3.56v7.12h-3.56v3.56h-32v-3.56h-3.56V400.2H177V371.72h3.56v3.56h3.56v-3.56h3.56v-3.56h-3.56V364.6h32Z" transform="translate(-50.47 -340.17)"/><path class="cls-5" d="M269.55,368.16v35.6H266v3.56h-7.12v-3.56H255.3V389.52h-7.12v14.24h-3.56v3.56H230.38v-3.56h-3.56v-35.6h3.56v7.12h3.56v-3.56h3.56v-3.56h-7.12V364.6h14.24v3.56h3.56v10.68h7.12V368.16h3.57V364.6H266v3.56Z" transform="translate(-50.47 -340.17)"/><path class="cls-5" d="M294.47,368.16H298v35.6h-3.56v3.56H280.23v-3.56h-3.56v-35.6h3.56v7.12h3.56v-3.56h3.56v-3.56h-7.12V364.6h14.24Z" transform="translate(-50.47 -340.17)"/><path class="cls-5" d="M309.82,356.16h-4.65v-9.31h4.65Zm55.82-9.31h4.65v9.31h-4.65v4.65h-14v41.86H347v4.65h-18.6v-4.65h-4.65V360.81h-14v-4.65h4.65v-4.65h4.65v-4.66h-9.3V342.2h55.82Z" transform="translate(-50.47 -340.17)"/><path class="cls-5" d="M418.74,371.72h3.56v32h-3.56v3.56h-3.56v-3.56h-3.56V389.52H400.94v14.24h-3.56v3.56H383.14v-3.56h-3.56v-32h3.56v3.56h3.56v-3.56h3.56v-3.56H386.7V364.6h28.48v3.56h3.56Zm-7.12,3.56H400.94v3.56h10.68Z" transform="translate(-50.47 -340.17)"/><path class="cls-5" d="M472.15,368.16h3.56v35.6h-3.56v3.56H465v-3.56h-3.56V389.52h-3.56v3.56h-3.56v-3.56h-3.56v14.24h-3.56v3.56H433v-3.56h-3.56v-35.6H433v7.12h3.56v-3.56h3.56v-3.56H433V364.6h14.25v3.56h3.56v7.12h3.56v3.56h3.56v-3.56h3.56v-7.12H465V364.6h7.12Z" transform="translate(-50.47 -340.17)"/><path class="cls-5" d="M522,371.72h3.56v32H522v3.56h-3.56v-3.56h-3.56V389.52H504.19v14.24h-3.56v3.56H486.39v-3.56h-3.56v-32h3.56v3.56H490v-3.56h3.56v-3.56H490V364.6h28.49v3.56H522Zm-7.12,3.56H504.19v3.56h10.69Z" transform="translate(-50.47 -340.17)"/><path class="cls-5" d="M234.85,440.79h3.56v32h-3.56v3.56h-3.56V480H192.12V476.4h-3.56V433.67h3.56v7.12h3.56v-3.56h3.56v-3.56h-7.12v-3.56h35.61v3.56h3.56v3.56h3.56Zm-14.25,3.56v-3.56h-7.12v24.93h7.12v-3.56h3.57V444.35Z" transform="translate(-50.47 -340.17)"/><path class="cls-5" d="M284.69,440.79h3.56v3.56h-3.56v3.56h-17.8v3.57h17.8V455h3.56v3.56h-3.56v3.56h-17.8v3.56h17.8v3.56h3.56v7.12h-3.56V480h-35.6V476.4h-3.56V440.79h3.56v7.12h3.56v-3.56h3.56v-3.56h-7.12v-3.56h35.6Z" transform="translate(-50.47 -340.17)"/><path class="cls-5" d="M334.54,440.79h3.56v21.37h-3.56v3.56H331v3.56h-3.56v3.56h-3.56v3.56H320.3V480H302.5V476.4h-3.56v-3.56h-3.56v-32h3.56v7.12h3.56v-3.56h3.56v-3.56h-7.12v-3.56h14.24v3.56h3.56v21.37h3.56V458.6h3.56V440.79h3.56v-3.56h7.12Z" transform="translate(-50.47 -340.17)"/><path class="cls-5" d="M384.39,440.79H388v3.56h-3.56v3.56h-17.8v3.57h17.8V455H388v17.8h-3.56v3.56h-3.56V480H348.78V476.4h-3.56V465.72h3.56v-3.56h24.93V458.6H348.78V455h-3.56V444.35h3.56v3.56h3.56v-3.56h3.57v-3.56h-3.57v-3.56h32.05Z" transform="translate(-50.47 -340.17)"/></svg>